<svg xmlns="http://www.w3.org/2000/svg" version="1.1" xmlns:xlink="http://www.w3.org/1999/xlink" xmlns:svgjs="http://svgjs.com/svgjs" width="2560" height="1684" preserveAspectRatio="none" viewBox="0 0 2560 1684"><g mask="url(&quot;#SvgjsMask1053&quot;)" fill="none"><rect width="2560" height="1684" x="0" y="0" fill="rgba(221, 221, 221, 1)"></rect><path d="M1363.4371763143827 1559.0361359600017L1121.882058904731 1356.3473260325784 919.1932489773075 1597.9024434422302 1160.7483663869593 1800.5912533696535z" fill="rgba(37, 99, 235, 0.4)" class="triangle-float1"></path><path d="M2592.4250353555694 1662.2606172473384L2585.663173728051 1274.8738240542948 2198.2763805350073 1281.6356856818134 2205.038242162526 1669.022478874857z" fill="rgba(37, 99, 235, 0.4)" class="triangle-float3"></path><path d="M1703.769288846282 1030.4000725410212L2137.4051337089945 1179.7128680394464 2286.7179292074197 746.077023176734 1853.0820843447073 596.7642276783088z" fill="rgba(37, 99, 235, 0.4)" class="triangle-float1"></path><path d="M2551.912926487266 1456.4029450812948L2258.213061569204 1331.7347488994149 2133.5448653873245 1625.4346138174765 2427.244730305386 1750.1028099993564z" fill="rgba(37, 99, 235, 0.4)" class="triangle-float1"></path><path d="M1793.54 199.72 a528.27 528.27 0 1 0 1056.54 0 a528.27 528.27 0 1 0 -1056.54 0z" fill="rgba(37, 99, 235, 0.4)" class="triangle-float3"></path><path d="M-312.54 1244.92 a397.26 397.26 0 1 0 794.52 0 a397.26 397.26 0 1 0 -794.52 0z" fill="rgba(37, 99, 235, 0.4)" class="triangle-float1"></path><path d="M344.5102220421921 1492.6985166508464L721.9192967415458 1787.5628020266518 1016.783582117351 1410.153727327298 639.3745074179974 1115.2894419514926z" fill="rgba(37, 99, 235, 0.4)" class="triangle-float1"></path><path d="M422.449,291.615C475.859,292.204,522.059,259.357,550.203,213.96C580.179,165.608,594.384,106.528,568.646,55.793C540.582,0.473,484.476,-37.146,422.449,-37.871C359.238,-38.61,298.194,-4.378,270.209,52.305C244.655,104.063,268.497,162.495,299.479,211.197C327.655,255.487,369.959,291.037,422.449,291.615" fill="rgba(37, 99, 235, 0.4)" class="triangle-float2"></path><path d="M1425.778,750.513C1524.563,754.93,1620.799,706.575,1670.406,621.035C1720.167,535.23,1718.162,425.152,1661.797,343.533C1611.413,270.575,1514.442,266.334,1425.778,266.807C1338.297,267.274,1240.569,271.92,1194.082,346.029C1145.544,423.409,1170.913,521.472,1216.315,600.732C1262.042,680.561,1333.872,746.404,1425.778,750.513" fill="rgba(37, 99, 235, 0.4)" class="triangle-float3"></path><path d="M1935.2611204682019 303.1315669607734L1817.1181900892034-170.71384563536623 1343.2727774930638-52.57091525636781 1461.4157078720623 421.27449733977187z" fill="rgba(37, 99, 235, 0.4)" class="triangle-float1"></path><path d="M-41.69 594.9 a402.34 402.34 0 1 0 804.68 0 a402.34 402.34 0 1 0 -804.68 0z" fill="rgba(37, 99, 235, 0.4)" class="triangle-float1"></path><path d="M458.07032532681956 274.94924952694134L762.5366974148127 601.4494602088378 1089.036908096709 296.9830881208447 784.5705360087161-29.517122561051792z" fill="rgba(37, 99, 235, 0.4)" class="triangle-float1"></path><path d="M138.44094851005667 744.730160313286L-90.68310202904567 958.391794037967 122.9785316956353 1187.5158445770694 352.1025822347376 973.8542108523883z" fill="rgba(37, 99, 235, 0.4)" class="triangle-float1"></path><path d="M2562.153,1993.219C2721.445,1987.8,2813.568,1830.459,2889.876,1690.529C2961.738,1558.753,3022.141,1408.845,2953.672,1275.274C2880.155,1131.854,2723.284,1054.517,2562.153,1051.196C2394.686,1047.744,2223.063,1112.153,2141.647,1258.538C2062.008,1401.727,2112.001,1572.021,2193.392,1714.222C2275.457,1857.601,2397.045,1998.836,2562.153,1993.219" fill="rgba(37, 99, 235, 0.4)" class="triangle-float1"></path><path d="M1084.14 1631.42 a348.58 348.58 0 1 0 697.16 0 a348.58 348.58 0 1 0 -697.16 0z" fill="rgba(37, 99, 235, 0.4)" class="triangle-float3"></path><path d="M350.3964266726666 147.29117369935378L67.73720620351486 536.3382144075697 456.7842469117308 818.9974348767214 739.4434673808826 429.95039416850557z" fill="rgba(37, 99, 235, 0.4)" class="triangle-float2"></path><path d="M2501.256677329465 317.70000722074866L2706.730702269318 45.02676644681401 2434.0574614953834-160.44725849303865 2228.5834365555306 112.22598228089598z" fill="rgba(37, 99, 235, 0.4)" class="triangle-float3"></path><path d="M563.37 1437.73 a539.37 539.37 0 1 0 1078.74 0 a539.37 539.37 0 1 0 -1078.74 0z" fill="rgba(37, 99, 235, 0.4)" class="triangle-float1"></path><path d="M227.7167271924722 728.2991830924962L-182.45885457722488 974.7575370646261 63.999499394905115 1384.9331188343233 474.1750811646022 1138.4747648621933z" fill="rgba(37, 99, 235, 0.4)" class="triangle-float1"></path><path d="M647.41 1390.31 a433.9 433.9 0 1 0 867.8 0 a433.9 433.9 0 1 0 -867.8 0z" fill="rgba(37, 99, 235, 0.4)" class="triangle-float1"></path></g><defs><mask id="SvgjsMask1053"><rect width="2560" height="1684" fill="#ffffff"></rect></mask><style>
            @keyframes float1 {
                0%{transform: translate(0, 0)}
                50%{transform: translate(-10px, 0)}
                100%{transform: translate(0, 0)}
            }

            .triangle-float1 {
                animation: float1 5s infinite;
            }

            @keyframes float2 {
                0%{transform: translate(0, 0)}
                50%{transform: translate(-5px, -5px)}
                100%{transform: translate(0, 0)}
            }

            .triangle-float2 {
                animation: float2 4s infinite;
            }

            @keyframes float3 {
                0%{transform: translate(0, 0)}
                50%{transform: translate(0, -10px)}
                100%{transform: translate(0, 0)}
            }

            .triangle-float3 {
                animation: float3 6s infinite;
            }
        </style></defs></svg>